<svg width="264" height="143" viewBox="0 0 264 143" fill="none" xmlns="http://www.w3.org/2000/svg">
<path d="M6.16193 110V40.1819H53.2074V52.3523H20.9233V68.9887H50.7869V81.1592H20.9233V97.8296H53.3438V110H6.16193ZM97.2955 69.3296V80.8523H65.4545V69.3296H97.2955ZM168.631 79.7273V110H154.108V57.6364H167.949V66.8751H168.562C169.722 63.8296 171.665 61.4205 174.392 59.6478C177.119 57.8523 180.426 56.9546 184.312 56.9546C187.949 56.9546 191.119 57.7501 193.824 59.341C196.528 60.9319 198.631 63.2046 200.131 66.1592C201.631 69.091 202.381 72.591 202.381 76.6592V110H187.858V79.2501C187.881 76.0455 187.063 73.5455 185.403 71.7501C183.744 69.9319 181.46 69.0228 178.551 69.0228C176.597 69.0228 174.869 69.4432 173.369 70.2842C171.892 71.1251 170.733 72.3523 169.892 73.966C169.074 75.5569 168.653 77.4773 168.631 79.7273ZM226.986 94.9319L227.02 77.5114H229.134L245.906 57.6364H262.577L240.043 83.9546H236.599L226.986 94.9319ZM213.827 110V40.1819H228.349V110H213.827ZM246.554 110L231.145 87.1932L240.827 76.9319L263.565 110H246.554Z" fill="black"/>
<path d="M134.472 9.5758L119.57 9.5758L114.281 78.5407L139.76 78.5407L134.472 9.5758Z" fill="#6551FF"/>
<path d="M139.574 81.8084L114.469 81.8073L119.57 109.675L134.472 109.675L139.574 81.8084Z" fill="#6551FF"/>
<path d="M134.199 127.398L132.142 111.545L121.821 111.639L119.834 125.828C119.834 125.828 127.006 133.7 126.339 142.638C126.34 142.637 127.663 132.634 134.199 127.398ZM129.088 127.252C128.208 128.132 126.781 128.132 125.901 127.252C125.021 126.372 125.021 124.944 125.901 124.064C126.781 123.184 128.208 123.184 129.088 124.064C129.968 124.944 129.968 126.372 129.088 127.252Z" fill="#6551FF"/>
<path d="M119.427 6.87462L133.173 6.87462C126.064 -0.274206 119.427 6.87462 119.427 6.87462Z" fill="#6551FF"/>
</svg>