<svg width="17" height="16" viewBox="0 0 17 16" fill="none" xmlns="http://www.w3.org/2000/svg">
<path d="M6.60089 0.00782776C6.56769 0.0104294 6.46011 0.0182342 6.36183 0.0260391C4.79331 0.149616 3.26198 0.827339 2.13308 1.89921C1.71206 2.29856 1.3787 2.69791 1.0812 3.1571C0.484873 4.07807 0.139561 5.0797 0.0240137 6.22441C0.00143555 6.44945 0.00143555 7.161 0.0240137 7.39514C0.115654 8.35514 0.386592 9.2488 0.826201 10.0488C1.49026 11.256 2.49433 12.2277 3.73347 12.8638C4.95401 13.4895 6.3844 13.7444 7.78292 13.5857C8.93573 13.4556 10.0779 13.0264 11.0063 12.3747C11.0807 12.3226 11.1444 12.2797 11.1497 12.2797C11.1537 12.2797 12.001 13.0446 13.033 13.9799C14.0636 14.9138 14.9415 15.7047 14.9814 15.736C15.077 15.8114 15.2935 15.9155 15.4263 15.9506C15.5803 15.9909 15.8978 15.9909 16.0505 15.9506C16.8474 15.736 17.2246 14.8618 16.8221 14.162C16.7185 13.9825 16.9231 14.1724 14.2814 11.7802L12.8471 10.482L12.9586 10.2973C13.1804 9.93303 13.4102 9.44262 13.555 9.02506C14.0902 7.481 14.0437 5.78994 13.4248 4.26929C12.9095 2.9997 11.9984 1.90181 10.8363 1.14474C9.87206 0.517746 8.82151 0.150917 7.65011 0.0325432C7.45886 0.013031 6.74433 -0.00387956 6.60089 0.00782776ZM7.41636 2.45205C8.28761 2.54311 9.07253 2.86051 9.76847 3.40295C9.95573 3.54864 10.3077 3.89336 10.4578 4.07807C11.2467 5.04588 11.5787 6.24783 11.3941 7.47059C11.151 9.0823 9.95042 10.4729 8.36065 10.9828C7.84401 11.1493 7.42167 11.2091 6.84925 11.1961C6.49331 11.1883 6.31003 11.1675 6.00987 11.1025C4.74815 10.8254 3.67636 10.0423 3.04417 8.93531C2.54878 8.06897 2.37214 7.04392 2.55011 6.06181C2.76261 4.87937 3.47581 3.82051 4.50909 3.15319C5.11339 2.76295 5.77612 2.5301 6.49862 2.45336C6.72308 2.42864 7.18925 2.42864 7.41636 2.45205Z" fill="#red"/>
</svg>
